<svg width="200" height="200" viewBox="0 0 200 200" fill="none" xmlns="http://www.w3.org/2000/svg">
<path d="M116.533 91.9214C135.369 81.3539 159.201 87.8973 170 106.602L153.748 115.984C134.826 126.909 110.625 120.29 99.8978 101.254L116.533 91.9214Z" fill="#FF6665"/>
<path d="M109.642 84.5132C120.403 65.8758 144.234 59.4902 162.872 70.2505L153.13 87.1234C142.37 105.761 118.538 112.146 99.9008 101.386L109.642 84.5132Z" fill="#90D8F6" fill-opacity="0.8"/>
<path d="M99.058 82.7077C99.058 60.1041 117.382 41.7803 139.985 41.7803V60.8797C139.985 83.4832 121.662 101.807 99.058 101.807V82.7077Z" fill="#22B24B" fill-opacity="0.8"/>
<path d="M89.4022 83.4861C78.6419 64.8487 85.0275 41.0171 103.665 30.2568L113.407 47.1298C124.167 65.7672 117.781 89.5987 99.1438 100.359L89.4022 83.4861Z" fill="#2EB9FF" fill-opacity="0.8"/>
<path d="M99.0586 79.9792C99.0586 58.8825 81.9564 41.7803 60.8597 41.7803V63.6082C60.8597 84.7048 77.962 101.807 99.0586 101.807V79.9792Z" fill="#FF6665" fill-opacity="0.8"/>
<path d="M90.836 84.5132C80.0757 65.8758 56.2442 59.4902 37.6068 70.2505L47.3484 87.1234C58.1087 105.761 81.9403 112.146 100.578 101.386L90.836 84.5132Z" fill="#FF6665" fill-opacity="0.8"/>
<path d="M83.0809 90.3082C64.245 79.7406 40.4131 86.284 29.6141 104.988L45.8658 114.371C64.7882 125.296 88.989 118.676 99.7163 99.6412L83.0809 90.3082Z" fill="#FF6665"/>
<path d="M90.8714 116.744C80.1111 135.381 56.2796 141.767 37.6422 131.006L47.3838 114.133C58.1441 95.496 81.9756 89.1104 100.613 99.8707L90.8714 116.744Z" fill="#FF6665" fill-opacity="0.8"/>
<path d="M101.456 118.549C101.456 141.153 83.132 159.477 60.5285 159.477V140.377C60.5285 117.774 78.8523 99.4498 101.456 99.4498V118.549Z" fill="#FF6665" fill-opacity="0.8"/>
<path d="M111.112 117.771C121.872 136.408 115.486 160.24 96.8489 171L87.1073 154.127C76.347 135.49 82.7326 111.658 101.37 100.898L111.112 117.771Z" fill="#FF6665" fill-opacity="0.8"/>
<path d="M101.455 121.278C101.455 142.374 118.557 159.477 139.654 159.477V137.649C139.654 116.552 122.552 99.4498 101.455 99.4498V121.278Z" fill="#FF6665" fill-opacity="0.8"/>
<path d="M109.678 116.744C120.438 135.381 144.27 141.767 162.907 131.006L153.165 114.133C142.405 95.496 118.574 89.1104 99.9361 99.8707L109.678 116.744Z" fill="#FF6665" fill-opacity="0.8"/>
</svg>
